<svg xmlns="http://www.w3.org/2000/svg" width="60" height="60" viewBox="0 0 60 60"><path d="M0,52.264A7.736,7.736,0,0,0,7.736,60H52.263A7.736,7.736,0,0,0,60,52.264V7.737A7.736,7.736,0,0,0,52.264,0H7.737A7.736,7.736,0,0,0,0,7.736V52.263Z" fill="#563d7c"/><path d="M80.062,65.205v-8.5h7.478a11.631,11.631,0,0,1,2.06.178,5.142,5.142,0,0,1,1.755.636,3.392,3.392,0,0,1,1.221,1.272,4.225,4.225,0,0,1,.458,2.086,3.844,3.844,0,0,1-1.374,3.307,5.741,5.741,0,0,1-3.51,1.018ZM72.075,50.5V86.83h17.6a18.569,18.569,0,0,0,4.757-.611,12.721,12.721,0,0,0,4.121-1.883,9.273,9.273,0,0,0,2.874-3.282,11.107,11.107,0,0,0-.585-10.584,8.731,8.731,0,0,0-5.011-3.384,9.054,9.054,0,0,0,3.689-3,7.96,7.96,0,0,0,1.246-4.58,9.747,9.747,0,0,0-.839-4.274,6.982,6.982,0,0,0-2.366-2.773,10.209,10.209,0,0,0-3.663-1.5,22.611,22.611,0,0,0-4.731-.458Zm7.987,30.123V70.65h8.7a6.729,6.729,0,0,1,4.172,1.2,4.7,4.7,0,0,1,1.577,3.994,4.994,4.994,0,0,1-.483,2.341,3.839,3.839,0,0,1-1.3,1.45,5.493,5.493,0,0,1-1.882.763,10.678,10.678,0,0,1-2.239.229Z" transform="translate(-55.181 -38.665)" fill="#fff"/></svg>