<svg xmlns="http://www.w3.org/2000/svg" xmlns:xlink="http://www.w3.org/1999/xlink" width="340.408" height="349.401" viewBox="0 0 340.408 349.401"><defs><linearGradient id="a" y1="0.5" x2="0.999" y2="0.5" gradientUnits="objectBoundingBox"><stop offset="0" stop-color="#b1fd38"/><stop offset="1" stop-color="#13d04d"/></linearGradient><filter id="b" x="0" y="112.833" width="340.408" height="236.567" filterUnits="userSpaceOnUse"><feOffset dy="15" input="SourceAlpha"/><feGaussianBlur stdDeviation="10" result="c"/><feFlood flood-opacity="0.098"/><feComposite operator="in" in2="c"/><feComposite in="SourceGraphic"/></filter></defs><g transform="translate(30)"><g transform="translate(0 0)"><path d="M193.812,241.046V114.338L0,0V125.959Z" transform="translate(86.597 1.874)" fill="#fcfcfd"/><path d="M0,0V102.342L172.819,205.058V100.842Z" transform="translate(98.593 19.869)" fill="url(#a)"/><path d="M0,1.874,2.249,0,196.811,114.713l-.375,130.457-2.624-2.249V116.212Z" transform="translate(86.597 0)" fill="#dfdfdf"/><g transform="matrix(1, 0, 0, 1, -30, 0)" filter="url(#b)"><path d="M86.6,0,0,56.232,183.69,176.567l96.718-61.48Z" transform="translate(30 127.83)" fill="#f5f5f5"/></g><path d="M43.486,0,0,28.866l170.944,107.59,50.608-31.49Z" transform="translate(43.111 138.705)" fill="#eaeaea"/><path d="M22.118,0,0,15.745,34.489,38.238,58.106,22.493Z" transform="translate(80.974 214.43)" fill="#eaeaea"/><path d="M283.033,61.105,183.69,124.459,0,3.374V0L183.69,120.336l96.718-61.48Z" transform="translate(0 184.065)" fill="#dfdfdf"/><path d="M145.453,89.971,0,3V0L145.827,86.972Z" transform="translate(108.34 50.983)" fill="#efefef" opacity="0.6"/><path d="M14.62,28.116,0,19.494V0L14.62,8.247Z" transform="translate(108.34 89.221)" fill="#efefef"/><path d="M7.123,14.245,0,10.122V0L7.5,4.5Z" transform="translate(110.964 64.104)" fill="#efefef" opacity="0.7"/><path d="M7.123,14.245,0,9.747V0L7.5,4.124Z" transform="translate(220.803 126.709)" fill="#efefef" opacity="0.7"/><path d="M16.495,14.245,0,5.248.375,0l16.12,9.372Z" transform="translate(137.58 83.598)" fill="#efefef" opacity="0.7"/><path d="M16.495,14.245,0,5.248V0L16.495,9.372Z" transform="translate(156.699 94.094)" fill="#efefef" opacity="0.7"/><path d="M16.495,13.87,0,4.873V0L16.495,9Z" transform="translate(235.423 136.455)" fill="#efefef" opacity="0.7"/><path d="M137.58,82.1,0,1.874V0L137.58,80.224Z" transform="translate(108.34 78.349)" fill="#f7f7f7" opacity="0.4"/><path d="M26.241,17.619,0,2.624V0L26.241,14.62Z" transform="translate(125.959 100.842)" fill="#f7f7f7" opacity="0.8"/><path d="M26.241,17.619,0,3V0L26.241,15Z" transform="translate(125.959 107.215)" fill="#f7f7f7" opacity="0.8"/><path d="M13.121,10.5,0,3V0L13.121,7.5Z" transform="translate(232.799 157.074)" fill="#f7f7f7" opacity="0.3"/></g></g></svg>