<svg xmlns="http://www.w3.org/2000/svg" width="42" height="60" viewBox="0 0 42 60"><path d="M400.894,2.239h-3.43l3.568,4.016v1.91h-7.35V5.929h3.568l-3.568-4.016V0H400.9Zm-8.672,0h-3.435l3.572,4.016v1.91h-7.353V5.929h3.568l-3.568-4.016V0h7.215Zm-8.588.092h-3.7V5.837h3.7V8.168H377.3V0h6.334Z" transform="translate(-368.166)" fill="#131313"/><path d="M3.823,534.7,0,491.4H42l-3.828,43.289-17.2,4.814Z" transform="translate(0 -479.504)" fill="#1572b6"/><path d="M885.5,680.525l14.187-3.934,3.336-37.391H885.5Z" transform="translate(-864.937 -624.244)" fill="#33a9dc"/><path d="M885.5,856.36h7.1l.489-5.5H885.5V845.5h13.46l-.128,1.44-1.319,14.792H885.5Z" transform="translate(-864.7 -825.271)" fill="#fff"/><path d="M412.368,1632.3h-.024l-5.977-1.615-.383-4.28H400.6l.753,8.427,11,3.06h.031V1632.3Z" transform="translate(-391.175 -1587.442)" fill="#ebebeb"/><path d="M892.733,1506.2l-.646,7.183L886.1,1515v5.593l11-3.051.08-.908.934-10.434h-5.384Z" transform="translate(-865.256 -1470.146)" fill="#fff"/><path d="M344.346,845.5v5.367H331.384l-.111-1.206-.245-2.721-.128-1.44Zm-.019,10.86v5.367h-5.91l-.1-1.206-.245-2.721-.128-1.44h6.384Z" transform="translate(-323.127 -825.271)" fill="#ebebeb"/></svg>