<svg xmlns="http://www.w3.org/2000/svg" width="127" height="19.154" viewBox="0 0 127 19.154"><g transform="translate(-334 -52)"><g transform="translate(194 -3)"><path d="M166.11,115.972l4.225,5.178,4.206-5.178h2.313v12.982H174.33v-9.27l-3.842,4.8h-.344l-3.881-4.8v9.27h-2.485V115.972Z" transform="translate(-23.778 -60.8)" fill="#fff"/><path d="M207.328,122.287c0,3.541-2.6,6.682-7.187,6.682-4.4,0-7.035-3.1-7.035-6.644,0-3.294,2.313-6.682,7.111-6.682C204.518,115.643,207.328,118.594,207.328,122.287Zm-11.642.038a4.312,4.312,0,0,0,4.473,4.379c2.561,0,4.588-1.542,4.588-4.417a4.326,4.326,0,0,0-4.512-4.379A4.246,4.246,0,0,0,195.686,122.325Z" transform="translate(-37.759 -60.643)" fill="#fff"/><path d="M229.023,115.972c2.829,0,4.282,1.675,4.282,3.75a3.288,3.288,0,0,1-2.16,3.217c.8.476,1.223.914,2.275,2.646l2.007,3.369h-2.848l-1.8-3.084c-1.166-2.018-1.93-2.379-2.944-2.379h-.726v5.463h-2.523V115.972Zm-1.912,5.672h1.28c1.319,0,2.352-.361,2.352-1.9,0-1.162-.708-1.866-2.1-1.866h-1.529Z" transform="translate(-52.767 -60.8)" fill="#fff"/><path d="M252.791,115.972c2.81,0,4.492,1.409,4.492,3.807,0,2.361-1.625,3.788-4.588,3.788h-2.064v5.387h-2.523V115.972Zm-2.16,5.672h1.682c1.854,0,2.389-.742,2.389-1.884,0-1.218-.631-1.884-2.447-1.884h-1.625Z" transform="translate(-63.979 -60.8)" fill="#fff"/><path d="M271.887,115.972v5.349h6.862v-5.349h2.523l.015,18.981h-2.523l-.015-11.463h-6.862v5.463h-2.523V115.972Z" transform="translate(-74.112 -60.8)" fill="#fff"/><path d="M310.649,122.287c0,3.541-2.6,6.682-7.187,6.682-4.4,0-7.035-3.1-7.035-6.644,0-3.294,2.313-6.682,7.112-6.682C307.839,115.643,310.649,118.594,310.649,122.287Zm-11.642.038a4.313,4.313,0,0,0,4.474,4.379c2.562,0,4.588-1.542,4.588-4.417a4.326,4.326,0,0,0-4.511-4.379A4.247,4.247,0,0,0,299.007,122.325Z" transform="translate(-87.013 -60.643)" fill="#fff"/><g transform="translate(229.767 55.115)"><path d="M344.231,115.862l5.792,13.04h-2.581l-1.51-3.446H340.35L338.9,128.9h-2.581l5.64-13.04Zm-3.077,7.729h3.957l-2.026-4.7Z" transform="translate(-336.317 -115.862)" fill="#fff"/><path d="M369.642,115.972c2.829,0,4.282,1.675,4.282,3.75a3.287,3.287,0,0,1-2.16,3.217c.8.476,1.223.914,2.275,2.646l2.007,3.369H373.2l-1.8-3.084c-1.166-2.018-1.93-2.379-2.943-2.379h-.727v5.463h-2.523V115.972Zm-1.912,5.672h1.281c1.319,0,2.351-.361,2.351-1.9,0-1.162-.707-1.866-2.1-1.866h-1.53Z" transform="translate(-350.089 -115.914)" fill="#fff"/><path d="M396.81,115.972V118.1H392.2v10.85H389.68V118.1h-4.569v-2.132Z" transform="translate(-359.578 -115.914)" fill="#fff"/></g><rect width="3.258" height="3.258" transform="translate(224.136 64.896)" fill="#fff"/></g></g></svg>