<svg xmlns="http://www.w3.org/2000/svg" width="55" height="40" viewBox="0 0 55 40"><g transform="translate(0.05)"><g transform="translate(-0.05 5.974)"><g transform="translate(0.021 3.605)"><g transform="translate(0.429 0.429)"><rect width="3.905" height="25.873" fill="#fff"/></g><path d="M4.334,49.831H.429A.4.4,0,0,1,0,49.4V23.527A.4.4,0,0,1,.429,23.1H4.334a.4.4,0,0,1,.429.427V49.4A.429.429,0,0,1,4.334,49.831ZM.858,48.977H3.905V23.954H.858Z" transform="translate(0 -23.1)"/></g><g transform="translate(0.622)"><g transform="translate(0.429 0.429)"><path d="M4.717,19.3H2.829a.405.405,0,0,1-.429-.429V16.129a.405.405,0,0,1,.429-.429H4.717a.405.405,0,0,1,.429.429v2.746A.43.43,0,0,1,4.717,19.3Z" transform="translate(-2.4 -15.7)" fill="#fff"/></g><path d="M4.146,19.163H2.258A.861.861,0,0,1,1.4,18.3V15.558a.861.861,0,0,1,.858-.858H4.146A.861.861,0,0,1,5,15.558V18.3A.861.861,0,0,1,4.146,19.163Zm0-3.6H2.258V18.3H4.146Z" transform="translate(-1.4 -14.7)"/></g><g transform="translate(0.021 7.351)"><g transform="translate(0 0.429)"><line x2="4.806" fill="#fff"/></g><rect width="4.806" height="0.858"/></g><g transform="translate(0 29.477)"><g transform="translate(0.451 0.429)"><path d="M2.974,88.09,4.905,84.7H1Z" transform="translate(-1 -84.7)" fill="#fff"/></g><path d="M2.375,87.948a.451.451,0,0,1-.386-.215L.014,84.344a.39.39,0,0,1,0-.429A.451.451,0,0,1,.4,83.7H4.306a.451.451,0,0,1,.386.215.39.39,0,0,1,0,.429l-1.974,3.39A.382.382,0,0,1,2.375,87.948Zm-1.2-3.39,1.2,2.1,1.2-2.1Z" transform="translate(0.05 -83.7)"/></g></g><g transform="translate(6.58)"><path d="M62.537,40h-45.9A1.232,1.232,0,0,1,15.4,38.77V1.23A1.232,1.232,0,0,1,16.633,0h45.9A1.232,1.232,0,0,1,63.77,1.23V38.812A1.224,1.224,0,0,1,62.537,40ZM16.633.848a.381.381,0,0,0-.383.382V38.812a.381.381,0,0,0,.383.382h45.9a.381.381,0,0,0,.383-.382V1.23a.381.381,0,0,0-.383-.382Z" transform="translate(-15.4)"/></g><g transform="translate(7.095 5.922)"><rect width="47.512" height="0.858"/></g><g transform="translate(9.583 1.888)"><path d="M24.145,7.49A1.545,1.545,0,1,1,25.69,5.945,1.538,1.538,0,0,1,24.145,7.49Zm0-2.231a.687.687,0,1,0,.687.687A.678.678,0,0,0,24.145,5.258Z" transform="translate(-22.6 -4.4)"/></g><g transform="translate(13.029 1.888)"><path d="M32.245,7.49A1.545,1.545,0,1,1,33.79,5.945,1.538,1.538,0,0,1,32.245,7.49Zm0-2.231a.687.687,0,1,0,.687.687A.678.678,0,0,0,32.245,5.258Z" transform="translate(-30.7 -4.4)"/></g><g transform="translate(16.474 1.888)"><path d="M40.345,7.49A1.545,1.545,0,1,1,41.89,5.945,1.538,1.538,0,0,1,40.345,7.49Zm0-2.231a.687.687,0,1,0,.687.687A.678.678,0,0,0,40.345,5.258Z" transform="translate(-38.8 -4.4)"/></g><g transform="translate(36.329 3.004)"><rect width="4.248" height="0.858"/></g><g transform="translate(42.162 3.004)"><rect width="10.642" height="0.858" fill="#13d04d"/></g><g transform="translate(8.99 34.808)"><path d="M65.871,83.058H63.3V82.2h2.575Zm-5.15,0H58.147V82.2h2.575Zm-5.15,0H53V82.2h2.575Zm-5.15,0H47.848V82.2h2.575Zm-5.15,0H42.7V82.2h2.575Zm-5.15,0H37.549V82.2h2.575Zm-5.15,0H32.4V82.2h2.575Zm-5.15,0H27.25V82.2h2.575Zm-5.15,0H22.1V82.2h2.575Z" transform="translate(-22.1 -82.2)"/></g><g transform="translate(46.196 7.987)"><path d="M109.658,51.413H108.8V50.64h.858Zm0-3.39H108.8V45.448h.858Zm0-5.15H108.8V40.3h.858Zm0-5.15H108.8V35.149h.858Zm0-5.15H108.8V30h.858Zm0-5.15H108.8V24.85h.858Zm0-5.15H108.8V19.7h.858Z" transform="translate(-108.8 -19.7)"/></g></g></svg>