<svg xmlns="http://www.w3.org/2000/svg" width="42" height="60" viewBox="0 0 42 60"><g transform="translate(-221.807 -89.47)"><path d="M225.629,254.88l-3.822-43.358h42l-3.826,43.351-17.2,4.823Z" transform="translate(0 -110.226)" fill="#e44d26"/><path d="M441.807,289.338l14.107-3.911,3.319-37.181H441.807Z" transform="translate(-199.316 -143.568)" fill="#f16529"/><path d="M317.066,314.133H310l-.488-5.465h7.55V303.33H303.683l.128,1.432,1.312,14.708h11.944Zm0,13.861-.023.006-5.944-1.605-.38-4.256h-5.358l.748,8.38,10.933,3.035.024-.007Z" transform="translate(-74.114 -193.26)" fill="#ebebeb"/><path d="M262.745,89.47h2.663v2.68h2.436V89.47h2.663v8.115h-2.663V94.868h-2.436v2.717h-2.663Zm11.264,2.691h-2.344V89.47h7.353v2.691h-2.345v5.424h-2.663V92.161Zm6.175-2.691h2.777l1.708,2.851,1.706-2.851h2.778v8.115H286.5V93.563l-1.832,2.885h-.046l-1.833-2.885v4.022h-2.606V89.47Zm10.294,0h2.664V94.9h3.745v2.682h-6.409Z" transform="translate(-36.971 0)"/><path d="M441.617,314.133v5.337h6.572l-.62,6.922L441.617,328v5.553l10.942-3.032.08-.9,1.254-14.051.13-1.433H441.617Zm0-10.8v5.337h12.892l.107-1.2.243-2.706.128-1.432Z" transform="translate(-198.973 -193.26)" fill="#fff"/></g></svg>