<svg xmlns="http://www.w3.org/2000/svg" xmlns:xlink="http://www.w3.org/1999/xlink" width="60" height="60" viewBox="0 0 60 60"><defs><radialGradient id="a" cx="0.329" cy="0.224" r="0.781" gradientTransform="translate(-0.01 0.01) scale(0.973 0.968)" gradientUnits="objectBoundingBox"><stop offset="0" stop-color="#423325" stop-opacity="0.98"/><stop offset="1" stop-color="#1c0a00"/></radialGradient></defs><g transform="translate(0 -130.746)"><path d="M24.8,155.549H79.675v54.872H24.8Z" transform="translate(-22.239 -22.239)" fill="url(#a)"/><path d="M2.5,133.31h55v54.872H2.5ZM0,190.746H60v-60H0Zm39.3-38.615c0-.205.075-.308.3-.308h3.925c.2,0,.3.077.3.308v20.231c0,.205-.05.308-.3.308H39.65c-.25,0-.325-.128-.325-.333V152.131H39.3Zm-.275-5.821a2.551,2.551,0,1,1,5.1,0,2.419,2.419,0,0,1-2.6,2.615A2.381,2.381,0,0,1,39.025,146.31Zm-11.25,14.256c-.7-2.846-2.35-9.051-2.975-12.051h-.05c-.525,3-1.85,8.077-2.9,12.051Zm-6.95,4.154-1.975,7.692c-.05.2-.125.256-.375.256H14.8c-.25,0-.3-.077-.25-.385l7.1-25.487a8.506,8.506,0,0,0,.25-2.128c0-.179.075-.256.2-.256h5.25c.175,0,.25.051.3.256l7.95,27.667c.05.2,0,.333-.2.333H31.25c-.2,0-.325-.051-.375-.231l-2.05-7.718h-8Z" transform="translate(0 0)" fill="#ff7f18"/></g></svg>