<svg xmlns="http://www.w3.org/2000/svg" xmlns:xlink="http://www.w3.org/1999/xlink" width="60" height="60" viewBox="0 0 60 60"><defs><radialGradient id="a" cx="0.329" cy="0.224" r="0.781" gradientTransform="translate(-0.01 0.01) scale(0.973 0.968)" gradientUnits="objectBoundingBox"><stop offset="0" stop-color="#4b2b36" stop-opacity="0.98"/><stop offset="1" stop-color="#250012"/></radialGradient></defs><g transform="translate(0 -130.746)"><path d="M24.8,155.549H79.675v54.872H24.8Z" transform="translate(-22.239 -22.239)" fill="url(#a)"/><path d="M2.5,133.31h55v54.872H2.5ZM0,190.746H60v-60H0Zm37.95-35.077a3.48,3.48,0,0,0-1.475-.256c-3.225,0-5.475,2.539-5.475,6.769,0,4.821,2.3,6.769,5.175,6.769a4.391,4.391,0,0,0,1.775-.308Zm-1.325-4.179a11.239,11.239,0,0,1,1.325.051v-6.82a.238.238,0,0,1,.25-.256h4.05c.2,0,.25.077.25.205v23.974a19.829,19.829,0,0,0,.125,2.59c0,.179-.05.205-.225.308a14.966,14.966,0,0,1-6.55,1.513c-5.525,0-9.475-3.513-9.475-10.667-.025-6.128,3.925-10.9,10.25-10.9ZM21.95,172.336c0,.256-.05.333-.325.333h-3.85c-.25,0-.325-.128-.325-.333V144.8c0-.256.125-.333.325-.333H21.65c.2,0,.3.077.3.308Z" fill="#ff408c"/></g></svg>