<svg xmlns="http://www.w3.org/2000/svg" width="52" height="60" viewBox="0 0 52 60"><g transform="translate(5 -113.4)"><path d="M-.173,167.346-5,113.4l52,.021-4.786,53.885L20.959,173.4ZM38.3,164.4l4.036-46.2H21.041l.162,50.961Zm-19.246-39.43H13.881l-.061,27.653-10.039-2.78.02,6.321,15.251,4.18V124.972Z" transform="translate(0)" fill="#d4b830"/><path d="M52.55,205.011c-.679-.206-4.035-1.112-7.453-2.038l-6.2-1.668V198.2c0-3.047,0-3.109.309-3.006.165.062,2.429.679,5.023,1.4l4.715,1.3.041-13.794.041-13.794h5.147v17.541c0,13.938-.041,17.541-.185,17.541C53.888,205.361,53.229,205.2,52.55,205.011Z" transform="translate(-35.052 -45.182)" fill="rgba(235,235,235,0)" opacity="0.986"/><path d="M38.321,200.87l-.021-6.32s6.506,1.832,10.191,2.779l.062-27.629H53.8v35.349L38.321,200.87Z" transform="translate(-34.574 -44.706)" fill="rgba(235,235,235,0.92)" opacity="0.986"/><path d="M123.4,136.6h21.617l-4.1,46.206-17.52,4.756Zm16.408,38.463,1.421-17.276-10.5,1.174v-9.225l11.2-.041.453-6.3-16.9.082.226,22.938,10.212-1.75-.144,5.106-10.294,2.739.1,6.26Z" transform="translate(-102.752 -18.424)" fill="#fdd83c"/></g></svg>