<svg xmlns="http://www.w3.org/2000/svg" xmlns:xlink="http://www.w3.org/1999/xlink" width="60" height="60" viewBox="0 0 60 60"><defs><radialGradient id="a" cx="0.329" cy="0.224" r="0.781" gradientTransform="translate(-0.01 0.01) scale(0.973 0.968)" gradientUnits="objectBoundingBox"><stop offset="0" stop-color="#34364e" stop-opacity="0.98"/><stop offset="1" stop-color="#0c0824"/></radialGradient></defs><g transform="translate(0 -130.746)"><path d="M24.8,155.549H79.675v54.872H24.8Z" transform="translate(-22.239 -22.239)" fill="url(#a)"/><path d="M2.5,133.31h55v54.872H2.5ZM0,190.746H60v-60H0Zm40.45-35.385c-1.975,0-2.65,1.026-2.65,1.872,0,.923.45,1.564,3.1,2.974,3.925,1.949,5.15,3.821,5.15,6.564,0,4.1-3.05,6.308-7.175,6.308a10.65,10.65,0,0,1-5.125-1.1c-.175-.077-.2-.205-.2-.41V167.8c0-.256.125-.333.3-.205a9.11,9.11,0,0,0,5.025,1.513c1.975,0,2.8-.846,2.8-2,0-.923-.575-1.744-3.1-3.077-3.55-1.744-5.025-3.513-5.025-6.461,0-3.308,2.525-6.051,6.9-6.051a11.238,11.238,0,0,1,4.475.718.573.573,0,0,1,.25.513v3.513c0,.205-.125.333-.375.256A8.282,8.282,0,0,0,40.45,155.361Zm-21.5,3.051c.575.051,1.025.051,2.025.051,2.925,0,5.675-1.051,5.675-5.128,0-3.256-1.975-4.9-5.3-4.9-1,0-1.95.051-2.4.077ZM14.5,144.8c0-.179.35-.308.55-.308,1.6-.077,3.975-.128,6.45-.128,6.925,0,9.625,3.9,9.625,8.872,0,6.513-4.6,9.308-10.25,9.308-.95,0-1.275-.051-1.95-.051v9.846c0,.205-.075.308-.3.308H14.8c-.2,0-.3-.077-.3-.308V144.8Z" transform="translate(0 0)" fill="#31c5f0"/></g></svg>