<svg xmlns="http://www.w3.org/2000/svg" width="46" height="40" viewBox="0 0 46 40"><path d="M44.824,33.659H1.176A1.115,1.115,0,0,1,0,32.66V1.035A1.118,1.118,0,0,1,1.176,0H44.824A1.118,1.118,0,0,1,46,1.035V32.66A1.115,1.115,0,0,1,44.824,33.659ZM1.176.714a.352.352,0,0,0-.356.321V32.66a.329.329,0,0,0,.356.321H44.824a.352.352,0,0,0,.356-.321V1.035a.329.329,0,0,0-.356-.321Z"/><g transform="translate(11.534 11.344)"><g transform="translate(0 0.725)"><path d="M38.262,39.923,32.9,37.459v-1.2L38.262,33.8v1.413L34.53,36.88l3.732,1.667Z" transform="translate(-32.9 -33.8)" fill="#13d04d"/></g><g transform="translate(8.985)"><path d="M62.555,31.8l-3.587,7.536H57.7L61.287,31.8Z" transform="translate(-57.7 -31.8)" fill="#13d04d"/></g><g transform="translate(17.5 0.688)"><path d="M86.562,37.4,81.2,39.859V38.446l3.732-1.667L81.2,35.113V33.7l5.362,2.5Z" transform="translate(-81.2 -33.7)" fill="#13d04d"/></g></g><g transform="translate(2.862 2.536)"><path d="M48.139,32.652H7.9V7H48.139ZM8.611,31.927H47.428V7.725H8.611Z" transform="translate(-7.9 -7)"/></g><g transform="translate(17.8 33.043)"><path d="M60.671,97.962H50.2V92.6H60.671Zm-9.746-.725h9.022V93.325H50.925Z" transform="translate(-50.2 -92.6)"/></g><g transform="translate(14.577 37.681)"><path d="M58.111,107.719H41.3V105.4H58.111Zm-16.087-.725H57.387v-.87H42.025Z" transform="translate(-41.3 -105.4)"/></g><g transform="translate(38.138 28.845)"><path d="M108.813,83.526a1.415,1.415,0,0,1-1.413-1.413,1.413,1.413,0,1,1,2.826,0A1.415,1.415,0,0,1,108.813,83.526Zm0-2.065a.688.688,0,0,0-.688.688.688.688,0,1,0,1.377,0A.688.688,0,0,0,108.813,81.461Z" transform="translate(-107.4 -80.7)"/></g><g transform="translate(35.459 29.173)"><path d="M100.723,83.846a1.123,1.123,0,1,1,1.123-1.123A1.129,1.129,0,0,1,100.723,83.846Zm0-1.522a.4.4,0,1,0,.4.4A.4.4,0,0,0,100.723,82.325Z" transform="translate(-99.6 -81.6)"/></g></svg>