<svg xmlns="http://www.w3.org/2000/svg" width="25" height="40.004" viewBox="0 0 25 40.004"><g transform="translate(-399 -560.996)"><path d="M26.442,39.683H18.056a.345.345,0,0,1-.356-.35V1.35A.345.345,0,0,1,18.056,1h8.386a.345.345,0,0,1,.356.35V39.333A.345.345,0,0,1,26.442,39.683Z" transform="translate(389.24 560.504)" fill="#fff"/><path d="M25.95,39.7H17.564a.884.884,0,0,1-.864-.851v-38A.884.884,0,0,1,17.564,0H25.95a.884.884,0,0,1,.864.851v38A.884.884,0,0,1,25.95,39.7Zm-8.234-1H25.8V1H17.717Z" transform="translate(389.732 560.996)" fill="#151617"/><g transform="translate(407.491 567.857)"><rect width="5.862" height="1.017" fill="#13d04d"/></g><g transform="translate(407.478 583.768)"><rect width="6.627" height="1.017" fill="#13d04d"/></g><g transform="translate(407.469 596.527)"><rect width="4.447" height="1.017"/></g><g transform="translate(407.469 564.554)"><rect width="4.447" height="1.017"/></g><g transform="translate(407.491 593.275)"><rect width="5.862" height="1.017"/></g><g transform="translate(407.491 590.174)"><rect width="5.862" height="1.017"/></g><g transform="translate(407.491 586.971)"><rect width="5.862" height="1.017"/></g><g transform="translate(407.491 580.565)"><rect width="5.862" height="1.017"/></g><g transform="translate(407.491 577.362)"><rect width="5.862" height="1.017"/></g><g transform="translate(407.491 570.955)"><rect width="5.862" height="1.017"/></g><g transform="translate(407.478 574.159)"><rect width="6.627" height="1.017"/></g><g transform="translate(418.231 561.504)"><g transform="translate(0.076 4.269)"><rect width="4.625" height="30.195" transform="translate(0.508 0.508)" fill="#fff"/><path d="M47.333,40.561H42.708a.476.476,0,0,1-.508-.5V9.9a.476.476,0,0,1,.508-.5h4.625a.476.476,0,0,1,.508.5V40.112A.466.466,0,0,1,47.333,40.561Zm-4.117-1h3.609V10.4H43.217Z" transform="translate(-42.2 -9.4)"/></g><g transform="translate(0.788)"><path d="M47.345,6.269H45.108a.48.48,0,0,1-.508-.508V2.508A.48.48,0,0,1,45.108,2h2.236a.48.48,0,0,1,.508.508V5.761A.547.547,0,0,1,47.345,6.269Z" transform="translate(-44.092 -1.492)" fill="#fff"/><path d="M46.853,6.286H44.617A1.02,1.02,0,0,1,43.6,5.269V2.017A1.02,1.02,0,0,1,44.617,1h2.236a1.02,1.02,0,0,1,1.017,1.017V5.269A1.02,1.02,0,0,1,46.853,6.286Zm0-4.269H44.617V5.269h2.236Z" transform="translate(-43.6 -1)"/></g><g transform="translate(0.076 8.606)"><line x2="5.642" transform="translate(0 0.508)" fill="#fff"/><rect width="5.693" height="1.017"/></g><g transform="translate(0 34.413)"><path d="M45.487,74.915,47.825,70.9H43.2Z" transform="translate(-42.615 -70.392)" fill="#fff"/><path d="M44.922,74.932a.534.534,0,0,1-.457-.254l-2.338-4.015a.462.462,0,0,1,0-.508.534.534,0,0,1,.457-.254h4.625a.534.534,0,0,1,.457.254.462.462,0,0,1,0,.508l-2.338,4.015C45.277,74.881,45.125,74.932,44.922,74.932ZM43.5,70.917l1.423,2.49,1.423-2.49Z" transform="translate(-42.05 -69.9)"/></g></g><g transform="translate(399 561.504)"><g transform="translate(0.025 4.015)"><rect width="4.625" height="30.195" transform="translate(5.165 30.686) rotate(180)" fill="#fff"/><path d="M.508,8.9H5.133a.476.476,0,0,1,.508.5V39.613a.476.476,0,0,1-.508.5H.508a.476.476,0,0,1-.508-.5V9.4A.5.5,0,0,1,.508,8.9Zm4.117,1H1.017V39.114H4.625Z" transform="translate(0 -8.9)"/></g><g transform="translate(0.737 34.21)"><path d="M2.908,70.5H5.145a.48.48,0,0,1,.508.508v3.253a.48.48,0,0,1-.508.508H2.908a.48.48,0,0,1-.508-.508V71.008A.48.48,0,0,1,2.908,70.5Z" transform="translate(-1.892 -69.992)" fill="#fff"/><path d="M2.417,69.5H4.653a1.02,1.02,0,0,1,1.017,1.017v3.253a1.02,1.02,0,0,1-1.017,1.017H2.417A1.02,1.02,0,0,1,1.4,73.769V70.517A1.02,1.02,0,0,1,2.417,69.5Zm0,4.219H4.653V70.466H2.417Z" transform="translate(-1.4 -69.5)"/></g><g transform="translate(0.025 29.823)"><line x1="5.693" transform="translate(0 0.508)" fill="#fff"/><rect width="5.693" height="1.017"/></g><path d="M3.338,2,1,6.015H5.625Z" transform="translate(-0.466 -1.492)" fill="#fff"/><path d="M2.822,1a.534.534,0,0,1,.457.254L5.566,5.269a.462.462,0,0,1,0,.508.534.534,0,0,1-.457.254H.484a.534.534,0,0,1-.457-.254.462.462,0,0,1,0-.508L2.364,1.254A.534.534,0,0,1,2.822,1ZM4.245,5.015,2.822,2.525,1.4,5.015Z" transform="translate(0.05 -1)"/></g></g></svg>