<svg xmlns="http://www.w3.org/2000/svg" xmlns:xlink="http://www.w3.org/1999/xlink" width="60" height="60" viewBox="0 0 60 60"><defs><clipPath id="a"><path d="M0,0H60V60H0Z"/></clipPath></defs><g clip-path="url(#a)"><path d="M218.415,42.167h-10.41v1.1c3.256,0,3.78.7,3.78,4.827v7.445c0,4.129-.523,4.885-3.78,4.885-2.5-.349-4.187-1.687-6.513-4.246l-2.675-2.907c3.6-.641,5.524-2.908,5.524-5.467,0-3.2-2.733-5.64-7.851-5.64H186.256v1.1c3.256,0,3.78.7,3.78,4.827v7.445c0,4.129-.523,4.885-3.78,4.885v1.1h11.572v-1.1c-3.256,0-3.78-.757-3.78-4.885V53.45h.989l6.455,8.083h16.923c8.316,0,11.922-4.419,11.922-9.712s-3.606-9.654-11.922-9.654ZM194.05,51.645V43.912h2.384a3.567,3.567,0,0,1,3.78,3.9,3.55,3.55,0,0,1-3.78,3.838Zm24.541,8.084h-.407c-2.093,0-2.384-.523-2.384-3.2V43.912h2.791c6.048,0,7.152,4.419,7.152,7.851C225.743,55.309,224.638,59.729,218.59,59.729ZM153.866,53.8l4.012-11.865c1.164-3.431.641-4.419-3.082-4.419V36.351h10.933v1.164c-3.663,0-4.536.872-5.989,5.117l-6.63,19.889h-.756l-5.932-18.2-6.047,18.2h-.757l-6.455-19.889c-1.4-4.245-2.326-5.117-5.7-5.117V36.351h12.91v1.164c-3.432,0-4.362.814-3.141,4.419l3.9,11.865L147,36.351h1.106Zm19.771,8.49c-6.4,0-11.631-4.71-11.631-10.468,0-5.7,5.234-10.41,11.631-10.41s11.631,4.71,11.631,10.41C185.268,57.577,180.035,62.287,173.638,62.287Zm0-19.074c-5.35,0-7.211,4.826-7.211,8.606,0,3.839,1.862,8.607,7.211,8.607,5.409,0,7.27-4.768,7.27-8.607,0-3.781-1.861-8.606-7.27-8.606Z" transform="translate(-65.044 -18.55)" fill="#00749a"/><path d="M352.987,60.368v1.163H339.67V60.368c3.9,0,4.594-.989,4.594-6.8v-9.3c0-5.816-.7-6.746-4.594-6.746V36.35h12.038c5.989,0,9.305,3.082,9.305,7.212,0,4.013-3.316,7.153-9.305,7.153h-3.315v2.849c0,5.817.7,6.8,4.595,6.8Zm-1.28-21.925h-3.315V48.563h3.315c3.257,0,4.768-2.268,4.768-5C356.476,40.771,354.965,38.443,351.708,38.443Zm49.256,17.622-.291,1.046c-.522,1.919-1.164,2.617-5.292,2.617h-.814c-3.023,0-3.547-.7-3.547-4.826V52.228c4.536,0,4.885.406,4.885,3.431h1.105V46.993H395.9c0,3.024-.349,3.431-4.885,3.431V43.911h3.2c4.13,0,4.769.7,5.292,2.617l.292,1.1h.929l-.406-5.466h-17.1v1.1c3.256,0,3.78.7,3.78,4.827v7.444c0,3.777-.444,4.729-3.012,4.865-2.44-.373-4.115-1.7-6.408-4.225l-2.675-2.907c3.606-.641,5.525-2.908,5.525-5.467,0-3.2-2.733-5.64-7.851-5.64H362.35v1.1c3.256,0,3.78.7,3.78,4.827v7.445c0,4.129-.523,4.885-3.78,4.885v1.1h11.573v-1.1c-3.256,0-3.78-.757-3.78-4.885V53.449h.989l6.455,8.083h23.9l.349-5.466h-.874Zm-30.821-4.421V43.911h2.384a3.567,3.567,0,0,1,3.781,3.9,3.55,3.55,0,0,1-3.781,3.838Zm42.626,10.642a8.6,8.6,0,0,1-5.234-1.977,4.173,4.173,0,0,0-.93,1.977H405.5V54.262h1.163c.466,3.838,3.14,6.106,6.571,6.106,1.861,0,3.373-1.047,3.373-2.791,0-1.512-1.337-2.675-3.722-3.78l-3.315-1.57c-2.327-1.106-4.07-3.025-4.07-5.583,0-2.791,2.617-5.175,6.223-5.175a7.283,7.283,0,0,1,4.536,1.512,3.285,3.285,0,0,0,.756-1.571h1.1v6.863H416.9c-.407-2.734-1.919-5-5-5-1.628,0-3.141.93-3.141,2.385,0,1.512,1.221,2.326,4.013,3.6l3.2,1.57c2.792,1.337,3.9,3.49,3.9,5.234C419.863,59.729,416.664,62.287,412.768,62.287Zm17.911,0a8.6,8.6,0,0,1-5.234-1.977,4.174,4.174,0,0,0-.93,1.977h-1.105V54.262h1.163c.465,3.838,3.14,6.106,6.571,6.106,1.861,0,3.373-1.047,3.373-2.791,0-1.512-1.337-2.675-3.722-3.78l-3.315-1.57c-2.326-1.106-4.07-3.025-4.07-5.583,0-2.791,2.617-5.175,6.223-5.175a7.284,7.284,0,0,1,4.536,1.512,3.28,3.28,0,0,0,.755-1.571h1.105v6.863h-1.221c-.407-2.734-1.919-5-5-5-1.628,0-3.141.93-3.141,2.385,0,1.512,1.221,2.326,4.013,3.6l3.2,1.57c2.791,1.337,3.9,3.49,3.9,5.234,0,3.663-3.2,6.221-7.094,6.221Z" transform="translate(-173.331 -18.549)" fill="#464342"/><g transform="translate(0 0)"><path d="M8.708,34.443a25.741,25.741,0,0,0,14.5,23.163L10.936,23.969A25.638,25.638,0,0,0,8.708,34.443Zm43.11-1.3a13.55,13.55,0,0,0-2.122-7.1c-1.3-2.12-2.527-3.915-2.527-6.035a4.456,4.456,0,0,1,4.321-4.568c.114,0,.222.014.334.021a25.731,25.731,0,0,0-38.883,4.844c.6.018,1.173.03,1.656.03,2.692,0,6.859-.327,6.859-.327a1.063,1.063,0,0,1,.166,2.12s-1.395.164-2.946.245l9.372,27.877L33.68,33.362,29.67,22.377c-1.386-.081-2.7-.245-2.7-.245a1.063,1.063,0,0,1,.163-2.12s4.25.327,6.779.327c2.691,0,6.859-.327,6.859-.327a1.063,1.063,0,0,1,.165,2.12s-1.4.164-2.946.245l9.3,27.666,2.567-8.578c1.113-3.56,1.96-6.116,1.96-8.32Z" transform="translate(-4.444 -4.444)" fill="#00749a"/><path d="M54.138,50.645,46.416,73.082a25.743,25.743,0,0,0,15.817-.41,2.18,2.18,0,0,1-.183-.355Zm22.131-14.6a19.754,19.754,0,0,1,.173,2.646,24.277,24.277,0,0,1-1.957,9.218L66.624,70.639a25.74,25.74,0,0,0,9.645-34.593Z" transform="translate(-23.686 -18.394)" fill="#00749a"/><path d="M30,0A30,30,0,1,0,60,30,30.034,30.034,0,0,0,30,0Zm0,58.625A28.625,28.625,0,1,1,58.624,30,28.658,28.658,0,0,1,30,58.625Z" transform="translate(0 0)" fill="#00749a"/></g></g></svg>