<svg xmlns="http://www.w3.org/2000/svg" width="60" height="60" viewBox="0 0 60 60"><path d="M10,10H64.86V64.86H10Z" transform="translate(-7.43 -7.43)" fill="#2e001e"/><path d="M0,0V60H60V0ZM2.5,2.564h55V57.436H2.5Z" fill="#ff2bc2"/><path d="M76.917,66.5a3.242,3.242,0,0,0-1.425-.257c-3.1,0-5.158,2.493-5.158,6.63,0,4.728,2.112,6.63,4.864,6.63a4.449,4.449,0,0,0,1.695-.283V66.5Zm-11,6.579c0-5.988,3.685-10.665,9.727-10.665a10.416,10.416,0,0,1,1.277.051V55.783a.252.252,0,0,1,.246-.257h3.955c.2,0,.246.077.246.206V79.219a19.141,19.141,0,0,0,.123,2.518c0,.18,0,.206-.147.283a14.1,14.1,0,0,1-6.288,1.49C69.72,83.511,65.912,80.067,65.912,73.077Zm-8.376-4.163,6.878,13.954c.123.206.049.411-.147.411H59.992a.481.481,0,0,1-.516-.334q-2.358-5.088-4.815-10.562h-.049c-1.474,3.444-3.1,7.2-4.667,10.587a.469.469,0,0,1-.442.283H45.426c-.246,0-.27-.206-.147-.36l6.731-13.543L45.5,55.885a.228.228,0,0,1,.172-.385H49.9c.246,0,.368.051.442.283,1.548,3.418,3.12,6.784,4.593,10.228h.049c1.425-3.392,3-6.81,4.5-10.176.123-.206.2-.334.442-.334h3.955c.2,0,.27.154.147.385L57.536,68.914Z" transform="translate(-33.589 -41.297)" fill="#ff2bc2"/></svg>